<?xml version="1.0" standalone="no"?>
<!DOCTYPE svg PUBLIC "-//W3C//DTD SVG 20010904//EN"
 "http://www.w3.org/TR/2001/REC-SVG-20010904/DTD/svg10.dtd">
<svg version="1.0" xmlns="http://www.w3.org/2000/svg"
 width="500.000000pt" height="500.000000pt" viewBox="0 0 500.000000 500.000000"
 preserveAspectRatio="xMidYMid meet">

<g transform="translate(0.000000,500.000000) scale(0.100000,-0.100000)"
fill="#000000" stroke="none">
<path d="M1365 2145 l-25 -24 0 -220 c0 -225 5 -266 37 -274 10 -3 168 -8 351
-12 l332 -7 0 51 0 51 -300 0 -300 0 2 178 3 177 297 3 296 2 4 50 3 50 -338
0 -338 0 -24 -25z"/>
<path d="M2130 1915 l0 -256 26 -24 c25 -23 34 -25 136 -25 75 0 118 4 137 14
15 8 95 101 178 208 83 106 176 226 207 266 l57 72 -85 0 -84 0 -91 -117 c-50
-65 -130 -169 -177 -230 l-86 -113 -44 0 -44 0 0 230 0 230 -65 0 -65 0 0
-255z"/>
<path d="M2921 2144 c-20 -25 -21 -39 -21 -254 0 -215 1 -229 21 -254 l20 -26
345 0 344 0 0 50 0 50 -297 2 -298 3 0 175 0 175 298 3 297 2 0 50 0 50 -344
0 -345 0 -20 -26z"/>
<path d="M3680 1916 c0 -241 1 -255 21 -280 l20 -26 345 0 344 0 0 50 0 50
-297 2 -298 3 -3 228 -2 227 -65 0 -65 0 0 -254z"/>
<path d="M1533 1925 c-18 -24 -33 -47 -33 -50 0 -3 113 -5 250 -5 l250 0 0 50
0 50 -217 0 -218 -1 -32 -44z"/>
<path d="M3087 1920 l-37 -50 255 0 255 0 0 50 0 50 -218 0 -218 0 -37 -50z"/>
<path d="M1198 1685 c3 -17 11 -25 25 -25 11 0 18 -3 14 -6 -6 -6 16 -34 27
-34 3 0 6 20 6 45 l0 45 -39 0 c-35 0 -38 -2 -33 -25z"/>
</g>
</svg>
