<?xml version="1.0" standalone="no"?>
<!DOCTYPE svg PUBLIC "-//W3C//DTD SVG 20010904//EN"
 "http://www.w3.org/TR/2001/REC-SVG-20010904/DTD/svg10.dtd">
<svg version="1.0" xmlns="http://www.w3.org/2000/svg"
 width="133.000000pt" height="133.000000pt" viewBox="0 0 133.000000 133.000000"
 preserveAspectRatio="xMidYMid meet">

<g transform="translate(0.000000,133.000000) scale(0.100000,-0.100000)"
fill="#000000" stroke="none">
<path d="M92 1313 c-18 -9 -45 -32 -60 -51 l-27 -35 -3 -546 -2 -546 22 -45
c17 -33 35 -51 68 -68 l45 -22 546 2 546 3 37 29 c68 52 67 35 64 646 -3 536
-3 549 -24 576 -11 15 -33 37 -48 48 -27 21 -39 21 -579 23 -496 3 -555 1
-585 -14z m286 -465 c7 -7 12 -42 12 -88 0 -46 -5 -81 -12 -88 -8 -8 -45 -12
-100 -12 -86 0 -88 1 -78 20 9 17 21 20 75 20 l65 0 0 60 0 60 -80 0 -80 0 0
-80 c0 -79 0 -80 -25 -80 -25 0 -25 1 -25 88 0 55 4 92 12 100 16 16 220 16
236 0z m270 0 c8 -8 12 -45 12 -100 0 -87 0 -88 -25 -88 -22 0 -25 4 -25 40
l0 40 -76 0 c-67 0 -75 2 -64 15 9 10 32 15 76 15 62 0 64 1 64 25 0 25 -1 25
-80 25 l-80 0 0 -80 c0 -73 -2 -80 -20 -80 -19 0 -20 7 -20 93 0 52 3 97 7
100 12 13 218 8 231 -5z m77 -88 c0 -91 -1 -95 -22 -98 -23 -3 -23 -1 -23 98
0 99 0 101 23 98 21 -3 22 -7 22 -98z m65 20 l0 -79 103 -3 c83 -2 102 -6 102
-18 0 -12 -21 -16 -114 -18 -75 -2 -118 1 -127 9 -10 8 -14 36 -14 94 0 87 3
95 32 95 16 0 18 -9 18 -80z m195 40 c21 -22 48 -40 59 -40 11 0 39 18 62 41
29 29 48 40 65 37 22 -3 19 -8 -38 -66 -45 -46 -63 -71 -65 -95 -2 -24 -8 -33
-25 -35 -20 -3 -23 1 -23 32 0 29 -9 43 -60 92 -33 31 -60 61 -60 66 0 23 50
4 85 -32z m-713 -277 l3 -48 65 -6 65 -6 -77 -1 -78 -2 0 55 c0 67 18 73 22 8z"/>
</g>
</svg>
