<?xml version="1.0" encoding="UTF-8"?>
<!-- Generator: https://ezgif.com/png-to-svg -->
<svg version="1.1" xmlns="http://www.w3.org/2000/svg" width="500" height="500">
<path d="M0 0 C1.49 -0.01 1.49 -0.01 3.02 -0.02 C6.31 -0.04 9.59 -0.04 12.88 -0.03 C15.17 -0.03 17.46 -0.04 19.74 -0.05 C24.54 -0.05 29.33 -0.05 34.13 -0.04 C40.27 -0.03 46.41 -0.05 52.55 -0.08 C57.27 -0.1 62 -0.1 66.72 -0.09 C68.99 -0.09 71.25 -0.1 73.52 -0.11 C76.68 -0.13 79.85 -0.11 83.02 -0.1 C83.95 -0.11 84.88 -0.12 85.85 -0.13 C91.36 -0.06 94.88 0.46 99.07 4.4 C101.95 9.43 102.5 13.94 102.43 19.62 C102.43 20.41 102.43 21.2 102.44 22.01 C102.44 24.6 102.42 27.18 102.4 29.77 C102.4 31.57 102.4 33.38 102.39 35.18 C102.39 38.95 102.38 42.72 102.35 46.48 C102.33 51.32 102.31 56.16 102.31 61 C102.31 64.72 102.3 68.44 102.28 72.16 C102.28 73.94 102.27 75.73 102.27 77.51 C102.26 80 102.25 82.48 102.23 84.97 C102.23 85.71 102.23 86.45 102.23 87.22 C102.19 92.29 102.19 92.29 101.07 93.4 C99.36 93.49 97.65 93.51 95.94 93.5 C95.01 93.5 94.08 93.5 93.12 93.49 C91.93 93.49 90.74 93.48 89.51 93.47 C85.74 93.45 81.96 93.43 78.07 93.4 C78.07 81.85 78.07 70.3 78.07 58.4 C54.31 58.4 30.55 58.4 6.07 58.4 C7.21 52.73 7.21 52.73 9.51 49.59 C9.94 48.99 10.37 48.38 10.82 47.76 C11.23 47.31 11.65 46.86 12.07 46.4 C12.73 46.4 13.39 46.4 14.07 46.4 C14.34 45.64 14.61 44.88 14.89 44.09 C16.08 41.39 16.75 40.17 19.07 38.4 C21.67 38.04 21.67 38.04 24.83 38.06 C26.01 38.06 27.19 38.06 28.41 38.06 C29.68 38.08 30.96 38.1 32.27 38.11 C33.58 38.12 34.88 38.12 36.23 38.12 C39.69 38.14 43.16 38.16 46.63 38.2 C50.17 38.23 53.71 38.24 57.25 38.26 C64.19 38.29 71.13 38.34 78.07 38.4 C78.07 32.13 78.07 25.86 78.07 19.4 C53.98 19.4 29.89 19.4 5.07 19.4 C5.11 43.38 5.11 43.38 5.16 67.36 C5.17 71.99 5.17 71.99 5.17 74.16 C5.17 75.67 5.17 77.19 5.18 78.71 C5.19 81 5.19 83.3 5.19 85.59 C5.19 86.88 5.19 88.18 5.19 89.51 C5.07 92.4 5.07 92.4 4.07 93.4 C2.36 93.49 0.65 93.51 -1.06 93.5 C-2.61 93.5 -2.61 93.5 -4.19 93.49 C-5.28 93.48 -6.37 93.48 -7.49 93.47 C-9.13 93.46 -9.13 93.46 -10.8 93.45 C-13.51 93.44 -16.22 93.42 -18.93 93.4 C-19.02 82.56 -19.09 71.71 -19.13 60.86 C-19.16 55.82 -19.18 50.78 -19.23 45.75 C-19.27 40.88 -19.3 36.02 -19.31 31.16 C-19.31 29.3 -19.33 27.45 -19.35 25.59 C-19.38 22.99 -19.38 20.4 -19.38 17.8 C-19.4 17.03 -19.41 16.27 -19.43 15.48 C-19.39 10.29 -18.3 7.33 -14.93 3.4 C-10.46 -0.48 -5.63 -0.03 0 0 Z " fill="#FFFFFF" transform="translate(146.927490234375,159.595947265625)"/>
<path d="M0 0 C1.49 -0.01 1.49 -0.01 3.01 -0.03 C6.3 -0.05 9.58 -0.05 12.86 -0.05 C15.15 -0.06 17.43 -0.06 19.72 -0.07 C24.51 -0.09 29.3 -0.09 34.09 -0.08 C40.22 -0.08 46.35 -0.11 52.48 -0.15 C57.2 -0.17 61.92 -0.17 66.64 -0.17 C68.9 -0.17 71.17 -0.18 73.43 -0.2 C76.59 -0.22 79.75 -0.21 82.92 -0.2 C83.85 -0.21 84.78 -0.22 85.74 -0.24 C91.02 -0.17 94.62 0.53 98.76 3.96 C102.53 8.1 102.34 13.22 102.35 18.54 C102.35 19.22 102.35 19.91 102.36 20.62 C102.37 22.86 102.36 25.11 102.35 27.36 C102.36 28.93 102.36 30.5 102.36 32.08 C102.36 35.36 102.36 38.65 102.35 41.93 C102.34 46.14 102.34 50.34 102.36 54.55 C102.36 57.79 102.36 61.03 102.36 64.27 C102.35 65.82 102.36 67.38 102.36 68.93 C102.37 71.09 102.36 73.26 102.35 75.43 C102.35 76.66 102.34 77.89 102.34 79.16 C101.97 83.98 100.46 87.92 97.09 91.42 C92.29 93.46 87.83 93.7 82.7 93.65 C81.88 93.65 81.06 93.65 80.21 93.65 C77.52 93.65 74.82 93.63 72.13 93.62 C70.25 93.61 68.38 93.61 66.5 93.61 C61.58 93.6 56.66 93.58 51.74 93.56 C46.71 93.54 41.68 93.53 36.65 93.52 C26.8 93.5 16.94 93.46 7.09 93.42 C8.07 86.84 8.07 86.84 10.53 84.23 C13.14 81.5 13.14 81.5 15.09 78.42 C15.75 78.42 16.41 78.42 17.09 78.42 C17.75 76.77 18.41 75.12 19.09 73.42 C38.56 73.09 58.03 72.76 78.09 72.42 C78.09 54.93 78.09 37.44 78.09 19.42 C54 19.42 29.91 19.42 5.09 19.42 C5.13 43.4 5.13 43.4 5.18 67.38 C5.18 72.01 5.18 72.01 5.18 74.17 C5.19 75.69 5.19 77.21 5.19 78.72 C5.2 81.02 5.2 83.31 5.2 85.61 C5.2 86.9 5.21 88.19 5.21 89.53 C5.09 92.42 5.09 92.42 4.09 93.42 C2.45 93.51 0.82 93.53 -0.82 93.52 C-1.81 93.51 -2.8 93.51 -3.82 93.51 C-4.86 93.5 -5.9 93.49 -6.97 93.48 C-8.02 93.48 -9.06 93.47 -10.14 93.47 C-12.73 93.46 -15.32 93.44 -17.91 93.42 C-17.98 82.57 -18.03 71.72 -18.07 60.87 C-18.08 55.84 -18.1 50.8 -18.14 45.76 C-18.17 40.9 -18.19 36.04 -18.2 31.17 C-18.2 29.32 -18.21 27.46 -18.23 25.61 C-18.25 23.01 -18.25 20.41 -18.25 17.81 C-18.26 17.05 -18.27 16.28 -18.28 15.5 C-18.26 10.72 -17.59 7.4 -14.91 3.42 C-10.53 -0.5 -5.57 -0.02 0 0 Z " fill="#FFFFFF" transform="translate(17.91162109375,159.580078125)"/>
<path d="M0 0 C4.04 -0.1 8.08 -0.17 12.12 -0.22 C13.49 -0.24 14.86 -0.27 16.23 -0.3 C18.21 -0.35 20.19 -0.37 22.17 -0.39 C23.36 -0.41 24.55 -0.43 25.77 -0.45 C29.65 0.09 31.27 1.23 34 4 C34.5 5.49 34.5 5.49 35 7 C36.63 8.61 36.63 8.61 38.62 10.19 C42.25 13.26 45.34 16.53 48.41 20.15 C49.76 21.73 51.22 23.22 52.69 24.69 C55 27 55 27 57 29.56 C60.71 34.21 60.71 34.21 66.09 36.32 C68.51 36.39 70.9 36.35 73.31 36.25 C74.15 36.23 74.98 36.21 75.85 36.2 C77.9 36.15 79.95 36.08 82 36 C82.42 35.09 82.42 35.09 82.86 34.15 C84.42 31.21 86.59 29.3 89 27 C91.48 24.58 93.83 22.21 96 19.5 C98.17 16.79 100.54 14.46 103 12 C105.32 9.41 107.62 6.82 109.91 4.21 C112.51 1.46 114.08 0.07 117.91 -0.23 C119.07 -0.22 120.23 -0.21 121.42 -0.2 C122.67 -0.19 123.93 -0.18 125.22 -0.18 C127.18 -0.15 127.18 -0.15 129.19 -0.12 C130.52 -0.11 131.86 -0.11 133.19 -0.1 C136.46 -0.07 139.73 -0.04 143 0 C143 3 143 3 140.62 5.69 C138 8 138 8 136 8 C136 8.99 136 9.98 136 11 C134.43 12.65 134.43 12.65 132.31 14.38 C129.04 17.12 125.98 19.94 123 23 C122.2 23.76 121.39 24.53 120.56 25.31 C118.49 27.49 116.77 29.59 115 32 C112.57 35.31 109.98 38.17 107 41 C106.22 41.8 105.43 42.61 104.62 43.44 C93.8 54 93.8 54 88 54 C88 54.66 88 55.32 88 56 C86.35 56 84.7 56 83 56 C83 68.21 83 80.42 83 93 C75.74 93 68.48 93 61 93 C61 80.79 61 68.58 61 56 C59.02 56 57.04 56 55 56 C55 55.34 55 54.68 55 54 C53.86 53.81 53.86 53.81 52.69 53.62 C50 53 50 53 47 51 C47 50.34 47 49.68 47 49 C46.36 48.73 45.72 48.46 45.06 48.19 C43 47 43 47 42 44 C41.42 43.71 40.85 43.42 40.25 43.12 C35.41 40.7 32.32 36.14 29 32 C27.35 30.31 25.69 28.65 24 27 C20.67 23.67 17.33 20.33 14 17 C13.26 16.28 12.51 15.56 11.75 14.81 C9.18 12.19 6.67 9.52 4.19 6.81 C3.4 5.95 2.61 5.09 1.79 4.21 C0 2 0 2 0 0 Z " fill="#FFFFFF" transform="translate(357,160)"/>
<path d="M0 0 C7.59 0 15.18 0 23 0 C23 24.09 23 48.18 23 73 C55.01 73 87.02 73 120 73 C120 79.27 120 85.54 120 92 C118.45 93.55 116.98 93.13 114.82 93.13 C113.92 93.14 113.02 93.14 112.09 93.15 C111.09 93.15 110.09 93.15 109.07 93.15 C108.02 93.15 106.98 93.15 105.9 93.16 C102.43 93.16 98.96 93.17 95.49 93.17 C93.08 93.17 90.68 93.17 88.27 93.18 C83.22 93.18 78.16 93.19 73.11 93.19 C66.64 93.19 60.16 93.2 53.69 93.22 C48.71 93.23 43.74 93.23 38.77 93.23 C36.38 93.23 33.99 93.23 31.6 93.24 C28.26 93.25 24.92 93.25 21.58 93.24 C20.59 93.25 19.61 93.25 18.59 93.26 C13.69 93.24 9.54 93.08 5 91 C0.19 85.93 -0.15 81.76 -0.11 75.04 C-0.11 74.23 -0.11 73.42 -0.11 72.59 C-0.11 69.91 -0.11 67.23 -0.1 64.55 C-0.1 62.69 -0.09 60.84 -0.09 58.98 C-0.09 54.09 -0.08 49.21 -0.07 44.32 C-0.06 39.33 -0.05 34.34 -0.05 29.36 C-0.04 19.57 -0.02 9.79 0 0 Z " fill="#FFFFFF" transform="translate(287,160)"/>
<path d="M0 0 C1.04 -0 1.04 -0 2.1 -0 C4.39 0 6.69 0.01 8.98 0.02 C10.57 0.02 12.16 0.02 13.75 0.02 C17.93 0.02 22.12 0.03 26.31 0.04 C30.58 0.06 34.85 0.06 39.11 0.06 C47.49 0.08 55.88 0.09 64.26 0.11 C64.26 4.07 64.26 8.03 64.26 12.11 C44.13 12.11 24 12.11 3.26 12.11 C3.59 17.72 3.92 23.33 4.26 29.11 C5.58 26.8 6.9 24.49 8.26 22.11 C11.41 20.01 12.13 19.87 15.73 19.89 C17.08 19.89 17.08 19.89 18.46 19.89 C19.43 19.9 20.39 19.91 21.39 19.92 C22.88 19.92 22.88 19.92 24.41 19.93 C27.59 19.94 30.76 19.96 33.94 19.99 C36.1 20 38.25 20.01 40.41 20.02 C45.69 20.04 50.97 20.07 56.26 20.11 C56.26 24.07 56.26 28.03 56.26 32.11 C38.77 32.11 21.28 32.11 3.26 32.11 C3.26 36.4 3.26 40.69 3.26 45.11 C5.07 45.11 6.88 45.1 8.75 45.1 C14.72 45.08 20.7 45.07 26.67 45.06 C30.3 45.06 33.92 45.05 37.55 45.04 C41.04 45.03 44.53 45.02 48.03 45.02 C50.02 45.02 52.01 45.01 53.99 45 C55.2 45 56.4 45 57.63 45 C59.23 45 59.23 45 60.86 44.99 C63.26 45.11 63.26 45.11 64.26 46.11 C64.33 48.13 64.34 50.16 64.32 52.18 C64.31 53.28 64.3 54.39 64.29 55.52 C64.28 56.38 64.27 57.23 64.26 58.11 C55.08 58.21 45.91 58.28 36.74 58.32 C32.48 58.34 28.23 58.37 23.97 58.42 C19.86 58.46 15.75 58.48 11.63 58.49 C10.07 58.5 8.5 58.51 6.93 58.54 C4.74 58.57 2.54 58.57 0.34 58.57 C-0.91 58.58 -2.16 58.59 -3.45 58.59 C-7.4 58.02 -9.05 57.05 -11.74 54.11 C-12.37 51.75 -12.37 51.75 -12.36 49.12 C-12.37 47.63 -12.37 47.63 -12.39 46.11 C-12.37 45.05 -12.36 43.99 -12.34 42.89 C-12.34 41.79 -12.34 40.7 -12.34 39.57 C-12.33 37.25 -12.32 34.93 -12.29 32.61 C-12.24 29.06 -12.25 25.51 -12.25 21.96 C-12.24 19.7 -12.23 17.45 -12.21 15.2 C-12.21 14.14 -12.21 13.07 -12.21 11.97 C-12.2 10.99 -12.18 10 -12.16 8.98 C-12.16 8.11 -12.15 7.24 -12.14 6.35 C-11.66 3.64 -10.87 2.79 -8.74 1.11 C-5.82 -0.35 -3.26 -0.01 0 0 Z " fill="#003B0D" transform="translate(300.74462890625,281.886474609375)"/>
<path d="M0 0 C0.68 -0 1.37 -0 2.07 -0 C4.33 0 6.58 0.01 8.84 0.02 C10.4 0.02 11.97 0.02 13.53 0.02 C17.65 0.02 21.77 0.03 25.89 0.04 C30.09 0.06 34.29 0.06 38.5 0.06 C46.74 0.08 54.99 0.09 63.23 0.11 C63.23 4.07 63.23 8.03 63.23 12.11 C43.43 12.11 23.63 12.11 3.23 12.11 C3.56 17.06 3.89 22.01 4.23 27.11 C7.14 24.38 7.14 24.38 8.78 21.95 C12.7 19.01 16.71 19.62 21.47 19.72 C22.46 19.73 23.45 19.73 24.48 19.74 C27.65 19.76 30.81 19.81 33.98 19.86 C36.13 19.88 38.28 19.9 40.43 19.92 C45.7 19.96 50.97 20.03 56.23 20.11 C56.23 24.07 56.23 28.03 56.23 32.11 C38.74 32.11 21.25 32.11 3.23 32.11 C3.23 36.4 3.23 40.69 3.23 45.11 C23.03 45.11 42.83 45.11 63.23 45.11 C63.23 49.4 63.23 53.69 63.23 58.11 C54.18 58.16 45.12 58.2 36.06 58.22 C31.85 58.23 27.65 58.24 23.44 58.26 C19.38 58.29 15.32 58.3 11.27 58.3 C9.72 58.31 8.17 58.31 6.62 58.32 C4.45 58.34 2.28 58.34 0.11 58.34 C-1.74 58.35 -1.74 58.35 -3.63 58.35 C-6.63 58.12 -8.3 57.79 -10.77 56.11 C-11.99 53.67 -11.9 52.08 -11.91 49.34 C-11.92 48.35 -11.92 47.36 -11.93 46.34 C-11.93 45.27 -11.93 44.19 -11.93 43.09 C-11.94 41.99 -11.94 40.89 -11.94 39.75 C-11.95 37.42 -11.95 35.09 -11.95 32.77 C-11.95 29.19 -11.97 25.62 -11.99 22.05 C-11.99 19.79 -12 17.53 -12 15.27 C-12 14.2 -12.01 13.13 -12.02 12.03 C-12.02 11.03 -12.01 10.04 -12.01 9.01 C-12.01 8.14 -12.01 7.26 -12.01 6.36 C-11.77 4.11 -11.77 4.11 -9.77 1.11 C-6.31 -0.04 -3.65 -0.01 0 0 Z " fill="#008935" transform="translate(144.766357421875,281.886474609375)"/>
<path d="M0 0 C7.92 0 15.84 0 24 0 C24.02 11.98 24.04 23.96 24.05 35.93 C24.06 41.5 24.06 47.06 24.08 52.62 C24.09 57.98 24.09 63.34 24.09 68.7 C24.1 70.76 24.1 72.81 24.11 74.86 C24.11 77.72 24.11 80.58 24.11 83.44 C24.12 84.3 24.12 85.15 24.12 86.04 C24.11 91.89 24.11 91.89 23 93 C15.41 93 7.82 93 0 93 C0 62.31 0 31.62 0 0 Z " fill="#FFFFFF" transform="translate(256,160)"/>
<path d="M0 0 C4.95 0 9.9 0 15 0 C15 14.85 15 29.7 15 45 C22.27 44.73 22.27 44.73 24.81 42.72 C25.18 42.2 25.55 41.67 25.93 41.13 C26.35 40.55 26.78 39.98 27.21 39.39 C27.61 38.79 28.02 38.18 28.44 37.56 C29.09 36.66 29.09 36.66 29.75 35.75 C31.31 33.56 32.8 31.41 34 29 C34.66 29 35.32 29 36 29 C36.25 28.28 36.5 27.56 36.75 26.81 C38.51 22.86 40.97 20 44.06 17 C46.83 14.14 48.56 10.85 50.38 7.32 C52.35 4.11 53.88 2.18 57 0 C63.24 -1.26 69.71 -0.57 76 0 C75.23 3.62 74.05 5.35 71.5 8.06 C69.21 10.51 68.07 11.78 67 15 C65.69 16.36 64.35 17.69 63 19 C60.86 21.53 59.03 23.94 57.38 26.81 C56.92 27.53 56.47 28.26 56 29 C55.34 29 54.68 29 54 29 C53.73 29.8 53.46 30.61 53.19 31.44 C52.8 32.28 52.4 33.13 52 34 C51.01 34.33 50.02 34.66 49 35 C48.32 36.66 47.66 38.33 47 40 C45.54 41.92 44.01 43.79 42.44 45.62 C39.09 49.45 39.09 49.45 37 54 C30.83 58.79 24.97 58.61 17.38 58.5 C16.26 58.52 15.14 58.53 13.98 58.55 C12.36 58.54 12.36 58.54 10.71 58.53 C9.25 58.52 9.25 58.52 7.75 58.52 C3.88 57.79 2.49 57.12 0 54 C-0.7 49.93 -0.58 45.91 -0.49 41.8 C-0.48 40.6 -0.47 39.41 -0.47 38.18 C-0.44 34.37 -0.38 30.56 -0.31 26.75 C-0.29 24.17 -0.26 21.58 -0.24 19 C-0.19 12.67 -0.1 6.33 0 0 Z " fill="#006422" transform="translate(212,282)"/>
<path d="M0 0 C4.95 0 9.9 0 15 0 C15 14.85 15 29.7 15 45 C35.13 45 55.26 45 76 45 C76 49.29 76 53.58 76 58 C66.83 58.09 57.66 58.16 48.49 58.21 C44.23 58.23 39.97 58.26 35.71 58.3 C31.6 58.35 27.49 58.37 23.38 58.38 C21.81 58.39 20.24 58.4 18.68 58.42 C16.48 58.45 14.28 58.46 12.09 58.45 C10.84 58.46 9.58 58.47 8.3 58.48 C4.33 57.9 2.68 56.96 0 54 C-0.6 51.47 -0.6 51.47 -0.57 48.59 C-0.57 47.51 -0.57 46.43 -0.57 45.31 C-0.54 44.15 -0.51 42.99 -0.49 41.8 C-0.48 40.6 -0.47 39.41 -0.47 38.18 C-0.44 34.37 -0.38 30.56 -0.31 26.75 C-0.29 24.17 -0.26 21.58 -0.24 19 C-0.19 12.67 -0.1 6.33 0 0 Z " fill="#002002" transform="translate(367,282)"/>
<path d="M0 0 C4.95 0 9.9 0 15 0 C15 14.85 15 29.7 15 45 C34.8 45 54.6 45 75 45 C75 49.29 75 53.58 75 58 C65.94 58.05 56.88 58.08 47.83 58.1 C43.62 58.11 39.41 58.13 35.21 58.15 C31.15 58.17 27.09 58.18 23.03 58.19 C21.48 58.19 19.94 58.2 18.39 58.21 C16.22 58.23 14.05 58.23 11.88 58.23 C10.03 58.23 10.03 58.23 8.14 58.24 C5.14 58.01 3.46 57.68 1 56 C-0.27 53.45 -0.12 51.67 -0.11 48.82 C-0.11 47.73 -0.11 46.65 -0.11 45.54 C-0.11 44.37 -0.1 43.2 -0.1 41.99 C-0.1 40.8 -0.09 39.6 -0.09 38.37 C-0.09 34.54 -0.08 30.71 -0.06 26.88 C-0.06 24.28 -0.05 21.69 -0.05 19.1 C-0.04 12.73 -0.02 6.37 0 0 Z " fill="#00B84D" transform="translate(54,282)"/>
</svg>
